HIERARCHY
ROOT Hips
{
  OFFSET 5.80788e-005 67.184 3.4734
  CHANNELS 6 Xposition Yposition Zposition Zrotation Xrotation Yrotation
  JOINT Chest
  {
    OFFSET 0 8.7983 -4.7612
    CHANNELS 3 Zrotation Xrotation Yrotation
    JOINT Chest2
    {
      OFFSET 0 8.0291 0.4195
      CHANNELS 3 Zrotation Xrotation Yrotation
      JOINT Chest3
      {
        OFFSET 0 9.9351 -2.2114
        CHANNELS 3 Zrotation Xrotation Yrotation
        JOINT Neck
        {
          OFFSET 0 22.3885 -0.4656
          CHANNELS 3 Zrotation Xrotation Yrotation
          JOINT Head
          {
            OFFSET -0.0001 12.643 3.4389
            CHANNELS 3 Zrotation Xrotation Yrotation
            End Site
            {
              OFFSET 0.0001 17.6655 0.5274
            }
          }
        }
        JOINT LeftCollar
        {
          OFFSET 2.2603 21.606 7.4023
          CHANNELS 3 Zrotation Xrotation Yrotation
          JOINT LeftShoulder
          {
            OFFSET 13.5163 -1.1332 -5.0146
            CHANNELS 3 Zrotation Xrotation Yrotation
            JOINT LeftElbow
            {
              OFFSET -0.0995 -28.05 -0.2431
              CHANNELS 3 Zrotation Xrotation Yrotation
              JOINT LeftWrist
              {
                OFFSET 0.0679 -23.3996 -0.1402
                CHANNELS 3 Zrotation Xrotation Yrotation
                JOINT LeftFinger1
                {
                  OFFSET 0.7932 -9.069 2.5189
                  CHANNELS 3 Zrotation Xrotation Yrotation
                  JOINT LeftFinger11
                  {
                    OFFSET -0.8272 -3.3923 0.5977
                    CHANNELS 3 Zrotation Xrotation Yrotation
                    JOINT LeftFinger12
                    {
                      OFFSET -0.5649 -2.3158 0.4082
                      CHANNELS 3 Zrotation Xrotation Yrotation
                      End Site
                      {
                        OFFSET -0.4919 -1.6479 0.2673
                      }
                    }
                  }
                }
                JOINT LeftFinger2
                {
                  OFFSET 0.9159 -9.2044 0.2193
                  CHANNELS 3 Zrotation Xrotation Yrotation
                  JOINT LeftFinger21
                  {
                    OFFSET 0.0117 -4.1944 -0.0248
                    CHANNELS 3 Zrotation Xrotation Yrotation
                    JOINT LeftFinger22
                    {
                      OFFSET 0.0071 -2.3249 -0.0142
                      CHANNELS 3 Zrotation Xrotation Yrotation
                      End Site
                      {
                        OFFSET -0.1475 -2.0882 0.0028
                      }
                    }
                  }
                }
                JOINT LeftFinger3
                {
                  OFFSET 0.6113 -8.7231 -2.0637
                  CHANNELS 3 Zrotation Xrotation Yrotation
                  JOINT LeftFinger31
                  {
                    OFFSET -0.1927 -3.8059 -0.2383
                    CHANNELS 3 Zrotation Xrotation Yrotation
                    JOINT LeftFinger32
                    {
                      OFFSET -0.1091 -2.1688 -0.1362
                      CHANNELS 3 Zrotation Xrotation Yrotation
                      End Site
                      {
                        OFFSET -0.2358 -1.9176 -0.0906
                      }
                    }
                  }
                }
                JOINT LeftFinger4
                {
                  OFFSET -0.6151 -8.0947 -3.5641
                  CHANNELS 3 Zrotation Xrotation Yrotation
                  JOINT LeftFinger41
                  {
                    OFFSET -0.4882 -2.341 -0.6462
                    CHANNELS 3 Zrotation Xrotation Yrotation
                    JOINT LeftFinger42
                    {
                      OFFSET -0.3575 -1.7167 -0.4742
                      CHANNELS 3 Zrotation Xrotation Yrotation
                      End Site
                      {
                        OFFSET -0.4187 -1.5237 -0.3496
                      }
                    }
                  }
                }
                JOINT LeftFinger0
                {
                  OFFSET -1.42 -1.8761 1.4223
                  CHANNELS 3 Zrotation Xrotation Yrotation
                  JOINT LeftFinger01
                  {
                    OFFSET -1.1471 -3.4929 2.6334
                    CHANNELS 3 Zrotation Xrotation Yrotation
                    JOINT LeftFinger02
                    {
                      OFFSET -0.823 -2.3 1.6571
                      CHANNELS 3 Zrotation Xrotation Yrotation
                      End Site
                      {
                        OFFSET -0.5822 -1.6914 1.1582
                      }
                    }
                  }
                }
              }
            }
          }
        }
        JOINT RightCollar
        {
          OFFSET -2.2603 21.606 7.4023
          CHANNELS 3 Zrotation Xrotation Yrotation
          JOINT RightShoulder
          {
            OFFSET -13.5187 -1.1334 -5.0155
            CHANNELS 3 Zrotation Xrotation Yrotation
            JOINT RightElbow
            {
              OFFSET 0.0994 -28.0499 -0.2431
              CHANNELS 3 Zrotation Xrotation Yrotation
              JOINT RightWrist
              {
                OFFSET -0.0679 -23.3996 -0.1402
                CHANNELS 3 Zrotation Xrotation Yrotation
                JOINT RightFinger1
                {
                  OFFSET -0.7932 -9.0691 2.5189
                  CHANNELS 3 Zrotation Xrotation Yrotation
                  JOINT RightFinger11
                  {
                    OFFSET 0.8272 -3.3923 0.5977
                    CHANNELS 3 Zrotation Xrotation Yrotation
                    JOINT RightFinger12
                    {
                      OFFSET 0.565 -2.3158 0.4082
                      CHANNELS 3 Zrotation Xrotation Yrotation
                      End Site
                      {
                        OFFSET 0.4919 -1.6479 0.2673
                      }
                    }
                  }
                }
                JOINT RightFinger2
                {
                  OFFSET -0.916 -9.2044 0.2193
                  CHANNELS 3 Zrotation Xrotation Yrotation
                  JOINT RightFinger21
                  {
                    OFFSET -0.0117 -4.1944 -0.0248
                    CHANNELS 3 Zrotation Xrotation Yrotation
                    JOINT RightFinger22
                    {
                      OFFSET -0.0071 -2.3249 -0.0142
                      CHANNELS 3 Zrotation Xrotation Yrotation
                      End Site
                      {
                        OFFSET 0.1475 -2.0882 0.0028
                      }
                    }
                  }
                }
                JOINT RightFinger3
                {
                  OFFSET -0.6113 -8.7231 -2.0637
                  CHANNELS 3 Zrotation Xrotation Yrotation
                  JOINT RightFinger31
                  {
                    OFFSET 0.1927 -3.8059 -0.2383
                    CHANNELS 3 Zrotation Xrotation Yrotation
                    JOINT RightFinger32
                    {
                      OFFSET 0.1091 -2.1688 -0.1362
                      CHANNELS 3 Zrotation Xrotation Yrotation
                      End Site
                      {
                        OFFSET 0.2358 -1.9176 -0.0906
                      }
                    }
                  }
                }
                JOINT RightFinger4
                {
                  OFFSET 0.6151 -8.0947 -3.564
                  CHANNELS 3 Zrotation Xrotation Yrotation
                  JOINT RightFinger41
                  {
                    OFFSET 0.4882 -2.341 -0.6462
                    CHANNELS 3 Zrotation Xrotation Yrotation
                    JOINT RightFinger42
                    {
                      OFFSET 0.3574 -1.7166 -0.4742
                      CHANNELS 3 Zrotation Xrotation Yrotation
                      End Site
                      {
                        OFFSET 0.4187 -1.5237 -0.3496
                      }
                    }
                  }
                }
                JOINT RightFinger0
                {
                  OFFSET 1.4199 -1.8761 1.4221
                  CHANNELS 3 Zrotation Xrotation Yrotation
                  JOINT RightFinger01
                  {
                    OFFSET 1.1472 -3.4929 2.6336
                    CHANNELS 3 Zrotation Xrotation Yrotation
                    JOINT RightFinger02
                    {
                      OFFSET 0.8229 -2.3 1.6571
                      CHANNELS 3 Zrotation Xrotation Yrotation
                      End Site
                      {
                        OFFSET 0.5822 -1.6914 1.1582
                      }
                    }
                  }
                }
              }
            }
          }
        }
      }
    }
  }
  JOINT RightHip
  {
    OFFSET -9.412 3.9771 -0.7758
    CHANNELS 3 Zrotation Xrotation Yrotation
    JOINT RightKnee
    {
      OFFSET -0.7531 -40.938 0
      CHANNELS 3 Zrotation Xrotation Yrotation
      JOINT RightAnkle
      {
        OFFSET 0 -40.1986 0
        CHANNELS 3 Zrotation Xrotation Yrotation
        JOINT RightToe
        {
          OFFSET 0 -4.4182 9.239
          CHANNELS 3 Zrotation Xrotation Yrotation
          End Site
          {
            OFFSET 0 0 6.1981
          }
        }
      }
    }
  }
  JOINT LeftHip
  {
    OFFSET 9.4119 3.9773 -0.7758
    CHANNELS 3 Zrotation Xrotation Yrotation
    JOINT LeftKnee
    {
      OFFSET 0.7532 -40.9383 0
      CHANNELS 3 Zrotation Xrotation Yrotation
      JOINT LeftAnkle
      {
        OFFSET 0 -40.1986 0
        CHANNELS 3 Zrotation Xrotation Yrotation
        JOINT LeftToe
        {
          OFFSET 0 -4.4182 9.239
          CHANNELS 3 Zrotation Xrotation Yrotation
          End Site
          {
            OFFSET 0 0 6.1981
          }
        }
      }
    }
  }
}
MOTION
Frames:	4
Frame Time:	0.0333333
0.486764 69.9635 12.0165 -1.13675e-014 31.8012 -180 -0.614131 5.53628 -0.21427 -1.21593 11.0745 -0.371203 -1.21593 11.0745 -0.371204 12.019 3.4015 -18.727 11.4249 -36.7468 7.18826 -21.9874 -16.0496 -47.7563 86.2981 -4.19711 33.9818 -22.758 -24.0822 -6.32146 -56.882 12.2359 12.5567 3.18055e-015 0 1.59028e-015 9.54166e-015 4.77083e-015 -1.59028e-015 -3.18055e-015 1.59028e-015 3.18055e-015 3.18055e-015 0 1.59028e-015 -0.0128257 0.00232142 8.99369e-005 1.32417e-031 1.59028e-015 -4.77083e-015 3.18055e-015 0 1.59028e-015 -0.0160218 0.00298228 0.000848397 -9.54166e-015 -1.59028e-015 -0 3.18055e-015 0 1.59028e-015 -0.0125527 0.00311229 0.00281569 3.18055e-015 -1.74931e-014 3.18055e-015 3.18055e-015 0 1.59028e-015 9.54166e-015 4.77083e-015 -1.59028e-015 -3.18055e-015 1.59028e-015 3.18055e-015 10.6309 -6.85407 12.5119 -48.46 -9.52764 -20.3918 33.9975 1.12803 9.04307 45.2899 -0.745596 -3.41165 3.18055e-015 0 -0 3.18055e-015 -1.81529e-006 -6.36111e-015 -7.95139e-016 3.18055e-015 -0 3.18055e-015 0 -0 0.012948 0.00230888 -8.38166e-005 1.26629e-006 -3.14198e-006 -4.63057e-006 3.18055e-015 0 -0 0.0163049 0.00302474 -0.000866137 3.92071e-006 -3.62051e-006 2.77204e-006 3.18055e-015 0 -0 0.0146023 0.00367991 -0.00326715 6.36111e-015 -3.18055e-015 -6.36111e-015 3.18055e-015 0 -0 3.18055e-015 -1.81529e-006 -6.36111e-015 -7.95139e-016 3.18055e-015 -0 -173.923 -30.1952 176.881 -129.381 41.9723 106.648 3.32531 -5.52568 21.4679 -2.08329e-007 1.4811e-005 7.87231e-008 98.5832 -25.5165 115.762 -158.411 32.8326 121.384 15.6218 30.8552 14.1598 -1.52816e-015 2.46493e-014 -1.98785e-016 
0.462685 70.126 12.0176 -1.13336e-014 31.6011 -180 -0.614886 5.44607 -0.214681 -1.21748 10.8941 -0.372874 -1.21748 10.8941 -0.372874 12.0357 4.53064 -18.9681 11.3432 -36.5698 7.12341 -22.172 -15.6683 -47.2808 86.265 -4.36749 33.9622 -23.0602 -24.3443 -6.46743 -56.5893 12.3966 12.4259 3.18055e-015 4.77083e-015 -1.59028e-015 3.16891e-006 1.86193e-006 -7.8568e-007 3.18055e-015 3.18055e-015 -6.36111e-015 3.18055e-015 4.77083e-015 -1.59028e-015 -0.0128361 0.0023341 9.03071e-005 -9.54166e-015 -9.54166e-015 -1.59028e-015 3.18055e-015 4.77083e-015 -1.59028e-015 -0.0159757 0.00297828 0.00085124 -1.27222e-014 -1.59028e-015 -0 3.18055e-015 4.77083e-015 -1.59028e-015 -0.0125154 0.00311065 0.0028196 7.8484e-007 1.04518e-006 -1.47142e-006 3.18055e-015 4.77083e-015 -1.59028e-015 3.16891e-006 1.86193e-006 -7.8568e-007 3.18055e-015 3.18055e-015 -6.36111e-015 11.387 -6.43651 12.6823 -48.7828 -9.344 -20.4565 33.1334 1.11205 9.0087 45.7249 -0.731832 -3.0975 -3.18055e-015 6.36111e-015 -9.54166e-015 -7.95139e-016 -1.28517e-006 -3.18055e-015 -1.11319e-014 -1.81532e-006 -3.18055e-015 -3.18055e-015 6.36111e-015 -9.54166e-015 0.01297 0.00232102 -9.20864e-005 7.95139e-015 -3.18055e-015 3.18055e-015 -3.18055e-015 6.36111e-015 -9.54166e-015 0.016317 0.00303107 -0.0008814 -2.38542e-015 0 -0 -3.18055e-015 6.36111e-015 -9.54166e-015 0.0145602 0.00366448 -0.00325371 3.18055e-015 -3.18055e-015 -0 -3.18055e-015 6.36111e-015 -9.54166e-015 -7.95139e-016 -1.28517e-006 -3.18055e-015 -1.11319e-014 -1.81532e-006 -3.18055e-015 -173.834 -30.0989 176.948 -129.528 41.89 106.733 3.43412 -5.76878 21.5197 3.26177e-006 2.56175e-006 3.93049e-007 98.3822 -25.4945 115.631 -158.393 32.8535 121.364 15.8348 30.6236 13.8733 -7.03486e-009 -2.10756e-010 1.06462e-007 
0.438601 70.2885 12.0187 -1.12999e-014 31.401 -180 -0.615657 5.35589 -0.215089 -1.21906 10.7138 -0.374541 -1.21907 10.7138 -0.374541 12.0572 5.66088 -19.2103 11.2618 -36.3926 7.05896 -22.3596 -15.2887 -46.8049 86.2313 -4.53823 33.9425 -23.3631 -24.6058 -6.61527 -56.2961 12.5567 12.2943 -3.47515e-006 -1.84276e-006 -3.74782e-006 -1.56889e-006 7.77196e-006 2.94321e-006 3.18055e-015 6.36111e-015 -1.59028e-015 -3.47515e-006 -1.84276e-006 -3.74782e-006 -0.0128096 0.0023308 8.91554e-005 1.17688e-006 1.60622e-006 -2.20736e-006 -3.47515e-006 -1.84276e-006 -3.74782e-006 -0.0160379 0.00298587 0.000847733 9.54166e-015 1.59028e-015 1.59028e-015 -3.47515e-006 -1.84276e-006 -3.74782e-006 -0.0126779 0.00313305 0.0028399 -6.13531e-006 4.72227e-006 -3.86719e-006 -3.47515e-006 -1.84276e-006 -3.74782e-006 -1.56889e-006 7.77196e-006 2.94321e-006 3.18055e-015 6.36111e-015 -1.59028e-015 12.141 -6.01694 12.847 -49.105 -9.15965 -20.5202 32.2695 1.09621 8.97437 46.1599 -0.71567 -2.78355 -5.30201e-007 -1.23381e-006 -1.4809e-006 7.95139e-015 -3.18055e-015 3.18055e-015 -5.30201e-007 -1.76313e-006 -1.4809e-006 -5.30201e-007 -1.23381e-006 -1.4809e-006 0.0129411 0.00231686 -9.08378e-005 -5.56597e-015 0 3.18055e-015 -5.30201e-007 -1.23381e-006 -1.4809e-006 0.0163225 0.0030412 -0.000874649 -1.05987e-006 -3.0499e-006 -2.96187e-006 -5.30201e-007 -1.23381e-006 -1.4809e-006 0.0145275 0.00366926 -0.00325196 -4.77083e-015 -6.36111e-015 3.18055e-015 -5.30201e-007 -1.23381e-006 -1.4809e-006 7.95139e-015 -3.18055e-015 3.18055e-015 -5.30201e-007 -1.76313e-006 -1.4809e-006 -173.745 -30.0021 177.014 -129.675 41.8074 106.818 3.54318 -6.01168 21.5719 4.61815e-006 2.56094e-006 1.02069e-006 98.1815 -25.472 115.5 -158.375 32.8745 121.344 16.0456 30.3914 13.5886 9.68019e-006 -3.34876e-007 -1.08664e-008 
0.414516 70.4511 12.0199 -1.12663e-014 31.2009 -180 -0.616443 5.26571 -0.215495 -1.22068 10.5334 -0.376204 -1.22069 10.5334 -0.376205 12.0836 6.79209 -19.4536 11.1809 -36.2152 6.99496 -22.55 -14.9107 -46.3287 86.2017 -4.70599 33.9229 -23.6725 -24.8665 -6.76497 -56.0023 12.7161 12.1617 3.18055e-015 -1.74931e-014 -3.18055e-015 3.18055e-015 -1.74931e-014 4.77083e-015 -6.36111e-015 -2.06736e-014 3.18055e-015 3.18055e-015 -1.74931e-014 -3.18055e-015 -0.0128192 0.00232895 8.47325e-005 7.84248e-007 -9.52851e-006 -1.47179e-006 3.18055e-015 -1.74931e-014 -3.18055e-015 -0.0160808 0.00300661 0.00086082 3.47576e-006 1.84321e-006 3.74716e-006 3.18055e-015 -1.74931e-014 -3.18055e-015 -0.0125168 0.00309706 0.00280411 -3.92133e-007 -7.72047e-007 7.35898e-007 3.18055e-015 -1.74931e-014 -3.18055e-015 3.18055e-015 -1.74931e-014 4.77083e-015 -6.36111e-015 -2.06736e-014 3.18055e-015 12.893 -5.59536 13.0059 -49.4241 -8.9713 -20.5823 31.4044 1.0772 8.94206 46.5947 -0.697136 -2.46972 -0 -6.36111e-015 -0 3.97569e-015 -3.18055e-015 6.36111e-015 2.38542e-015 -6.36111e-015 -3.18055e-015 -0 -6.36111e-015 -0 0.0129681 0.00231755 -8.96634e-005 -7.95139e-016 6.36111e-015 -0 -0 -6.36111e-015 -0 0.016326 0.00303199 -0.000873504 5.64969e-006 -3.88648e-008 1.62687e-006 -0 -6.36111e-015 -0 0.0146114 0.00368527 -0.00326795 3.97569e-015 3.18055e-015 3.18055e-015 -0 -6.36111e-015 -0 3.97569e-015 -3.18055e-015 6.36111e-015 2.38542e-015 -6.36111e-015 -3.18055e-015 -173.657 -29.9057 177.081 -129.821 41.7248 106.903 3.65249 -6.25448 21.6245 -3.18055e-015 9.54166e-015 1.59028e-015 97.981 -25.4491 115.369 -158.358 32.8954 121.323 16.2544 30.1583 13.3059 5.09386e-015 -8.51169e-007 -0 
